<svg width="407" height="389" viewBox="0 0 407 389" fill="none" xmlns="http://www.w3.org/2000/svg">
<path d="M388.385 34.6319H167.696C157.422 34.6319 149.093 42.9606 149.093 53.2344V369.797C149.093 380.071 157.422 388.4 167.696 388.4H388.385C398.659 388.4 406.987 380.071 406.987 369.797V53.2344C406.987 42.9606 398.659 34.6319 388.385 34.6319Z" fill="#A9BAE6"/>
<path d="M384.668 48.8891H172.401V357.232H384.668V48.8891Z" fill="#F6F5F5"/>
<path d="M384.668 48.8916C384.733 169.129 388.615 314.14 375.109 346.246C315.619 352.043 245.965 353.903 172.399 354.248L200.363 49.8202L384.668 48.8916Z" fill="#E4E4E4"/>
<path d="M365.602 336.529C272.88 351.37 210.91 352.151 160.647 348.419C167.16 279.085 169.77 163.901 172.399 48.904L284.131 49.1518L385.253 55.8274C386.728 175.184 386.888 285.435 365.602 336.529Z" fill="white"/>
<path d="M332.836 79.9715L221.172 77.34L220.771 94.3483L332.435 96.9798L332.836 79.9715Z" fill="#708CD5"/>
<path d="M354.361 121.594L253.64 119.221L253.456 127.005L354.178 129.379L354.361 121.594Z" fill="#708CD5"/>
<path d="M321.7 137.808L253.239 136.195L253.055 143.98L321.517 145.593L321.7 137.808Z" fill="#D3DFFF"/>
<path d="M221.902 118.93L198.057 118.368L197.495 142.213L221.34 142.775L221.902 118.93Z" fill="white" stroke="#708CD5" stroke-width="2.01" stroke-miterlimit="10"/>
<path d="M201.95 124.628C202.685 127.447 204.045 139.251 209.957 135.952C211.321 135.191 212.475 133.179 213.493 132.02L218.993 125.775L229.993 113.287C230.932 112.221 226.785 109.545 225.606 110.884C222.347 114.584 219.088 118.286 215.829 121.985C214.199 123.835 212.57 125.685 210.94 127.534C209.809 128.818 207.193 132.958 205.516 133.326C206.43 133.622 207.341 133.915 208.255 134.21C208.9 134.738 207.701 130.989 207.674 130.886C207.218 129.144 206.765 127.404 206.31 125.662C205.934 124.223 201.394 122.493 201.952 124.626L201.95 124.628Z" fill="#EE6F57"/>
<path d="M335.561 164.524L252.618 162.57L252.435 170.354L335.377 172.309L335.561 164.524Z" fill="#708CD5"/>
<path d="M352.94 181.917L252.219 179.543L252.035 187.328L352.757 189.702L352.94 181.917Z" fill="#D3DFFF"/>
<path d="M220.881 162.281L197.036 161.719L196.474 185.564L220.319 186.126L220.881 162.281Z" fill="white" stroke="#708CD5" stroke-width="2.01" stroke-miterlimit="10"/>
<path d="M200.913 168.651C201.649 171.47 203.008 183.274 208.92 179.975C210.285 179.214 211.438 177.202 212.457 176.043C214.289 173.96 216.124 171.88 217.956 169.798L228.957 157.31C229.896 156.244 225.748 153.568 224.569 154.907C221.31 158.607 218.051 162.309 214.793 166.008C213.163 167.858 211.534 169.708 209.904 171.557C208.773 172.841 206.157 176.981 204.48 177.349C205.394 177.645 206.305 177.938 207.218 178.233C207.864 178.761 206.665 175.012 206.638 174.909C206.182 173.167 205.729 171.427 205.274 169.685C204.898 168.246 200.358 166.516 200.916 168.649L200.913 168.651Z" fill="#EE6F57"/>
<path d="M352.316 208.295L251.595 205.921L251.411 213.706L352.133 216.079L352.316 208.295Z" fill="#708CD5"/>
<path d="M296.24 223.957L251.196 222.895L251.012 230.68L296.057 231.742L296.24 223.957Z" fill="#D3DFFF"/>
<path d="M219.859 205.63L196.015 205.068L195.453 228.913L219.297 229.475L219.859 205.63Z" fill="white" stroke="#708CD5" stroke-width="2.01" stroke-miterlimit="10"/>
<path d="M200.217 212.309C200.953 215.128 202.312 226.932 208.225 223.633C209.589 222.872 210.743 220.86 211.761 219.701C213.594 217.618 215.428 215.538 217.261 213.456C220.927 209.293 224.594 205.131 228.261 200.968C229.2 199.902 225.052 197.226 223.873 198.565C220.615 202.265 217.356 205.967 214.097 209.666C212.467 211.516 210.838 213.366 209.208 215.215C208.077 216.499 205.461 220.639 203.784 221.007C204.698 221.303 205.609 221.595 206.523 221.891C207.168 222.419 205.969 218.669 205.942 218.567C205.486 216.825 205.033 215.085 204.578 213.343C204.202 211.904 199.662 210.174 200.22 212.307L200.217 212.309Z" fill="#EE6F57"/>
<path d="M351.295 251.643L250.574 249.27L250.391 257.055L351.112 259.428L351.295 251.643Z" fill="#708CD5"/>
<path d="M329.742 268.119L250.175 266.244L249.992 274.029L329.558 275.904L329.742 268.119Z" fill="#D3DFFF"/>
<path d="M218.836 248.979L194.991 248.417L194.429 272.262L218.274 272.824L218.836 248.979Z" fill="white" stroke="#708CD5" stroke-width="2.01" stroke-miterlimit="10"/>
<path d="M199.204 255.376C199.94 258.195 201.299 269.999 207.211 266.7C208.575 265.939 209.729 263.927 210.748 262.768L216.247 256.523C219.914 252.36 223.581 248.198 227.248 244.035C228.186 242.969 224.039 240.293 222.86 241.632C219.601 245.332 216.342 249.034 213.083 252.733C211.453 254.583 209.824 256.432 208.195 258.282C207.063 259.566 204.448 263.706 202.77 264.074C203.684 264.37 204.595 264.662 205.509 264.958C206.155 265.486 204.956 261.736 204.928 261.634C204.473 259.892 204.019 258.152 203.564 256.41C203.188 254.971 198.648 253.241 199.206 255.374L199.204 255.376Z" fill="#EE6F57"/>
<path d="M289.485 293.232L249.56 292.291L249.377 300.076L289.301 301.017L289.485 293.232Z" fill="#708CD5"/>
<path d="M349.894 311.624L249.172 309.254L248.989 317.038C287.956 317.952 337.574 319.779 347.698 318.225C349.235 316.478 350.064 314.333 349.894 311.624Z" fill="#D3DFFF"/>
<path d="M218.158 292.011L194.313 291.449L193.751 315.294L217.596 315.855L218.158 292.011Z" fill="white" stroke="#708CD5" stroke-width="2.01" stroke-miterlimit="10"/>
<path d="M198.198 298.065C198.933 300.884 200.293 312.688 206.205 309.389C207.569 308.628 208.723 306.616 209.742 305.457L215.241 299.212C218.908 295.049 222.575 290.887 226.241 286.724C227.18 285.658 223.033 282.982 221.851 284.321C218.592 288.021 215.333 291.723 212.074 295.422C210.445 297.272 208.815 299.122 207.186 300.974C206.055 302.258 203.439 306.398 201.762 306.766C202.675 307.061 203.587 307.354 204.5 307.649C205.146 308.178 203.947 304.428 203.919 304.325C203.464 302.583 203.011 300.844 202.555 299.102C202.18 297.662 197.639 295.933 198.198 298.065Z" fill="#EE6F57"/>
<path d="M325.847 36.7746V60.5733H230.231V36.7746C230.231 32.98 231.773 29.5458 234.256 27.0528C234.566 26.7424 234.887 26.4521 235.227 26.1818C237.6 24.2094 240.654 23.0279 243.978 23.0279C246.471 23.0279 248.864 22.4573 251.006 21.426C251.937 20.9755 252.818 20.4448 253.649 19.8341C256.383 17.8116 258.475 14.9382 259.517 11.514C260.578 8.0198 262.75 5.09628 265.564 3.06382C268.267 1.12147 271.561 0.000114441 275.055 0.000114441H281.023C284.517 0.000114441 287.811 1.12147 290.514 3.06382C293.327 5.09628 295.5 8.0198 296.561 11.514C297.603 14.9382 299.695 17.8116 302.428 19.8341C303.259 20.4448 304.14 20.9755 305.072 21.426C307.214 22.4573 309.607 23.0279 312.1 23.0279C315.424 23.0279 318.478 24.2094 320.851 26.1818C323.904 28.6948 325.847 32.5094 325.847 36.7746Z" fill="#EE6F57"/>
<path d="M333.606 48.8892V66.5806H222.472V48.8892H230.231V60.5733H325.847V48.8892H333.606Z" fill="#E4E4E4"/>
<path d="M278.042 22.3246C282.725 22.3246 286.522 18.7161 286.522 14.2648C286.522 9.81357 282.725 6.20509 278.042 6.20509C273.358 6.20509 269.561 9.81357 269.561 14.2648C269.561 18.7161 273.358 22.3246 278.042 22.3246Z" fill="white"/>
<path d="M183.919 111.072C180.527 110.431 177.359 104.764 176.257 102.592C175.987 102.059 175.902 101.455 176.014 100.867L177.364 93.7134C177.364 93.7134 180.477 94.2441 180.237 98.3891C180.212 98.8196 180.3 99.2501 180.455 99.6506L181.646 102.769L185.17 100.041L183.238 94.5845C183.238 94.5845 180.653 95.2953 179.316 94.8698C176.573 93.9938 180.169 91.8562 181.306 91.6284C182.442 91.4006 184.945 90.492 186.082 92.4244C187.218 94.3567 187.901 95.4931 187.901 95.4931C187.901 95.4931 189.153 91.1729 188.299 81.5087C188.262 81.0731 189.351 81.0832 189.656 81.3935C190.572 82.3247 192.031 85.1631 192.109 93.7885C192.109 93.7885 192.262 83.7364 193.986 82.7026C195.408 81.8491 196.126 86.77 195.125 95.1126C195.125 95.1126 196.98 87.8889 198.309 87.8764C200.549 87.8538 198.339 107.17 192.707 112.927L183.926 111.072H183.919Z" fill="#F9B384"/>
<path d="M194.552 108.116C194.452 109.077 194.341 110.008 194.221 110.909V110.919C193.821 114.123 193.32 116.986 192.74 119.439C192.71 119.56 192.689 119.67 192.659 119.78C190.947 126.798 190.637 130.233 184.79 129.311L178.773 122.463L178.713 122.393L178.272 121.892L179.494 118.288L179.654 117.817L180.555 115.194L180.665 114.854L182.207 110.338L182.828 108.506L194.552 108.116Z" fill="#F9B384"/>
<path d="M82.764 357.482L81.2321 362.268C70.7294 365.717 64.6045 369.672 64.2115 374.283H94.5808L97.0162 358.256C90.8663 359.758 85.9353 358.711 82.764 357.482Z" fill="#1F3C88"/>
<path d="M86.571 345.583L82.7639 357.482C85.9352 358.711 90.8662 359.758 97.0161 358.256L98.5855 347.918L86.571 345.583Z" fill="#F9B384"/>
<path d="M138.494 356.952L139.385 344.832L125.118 345.583L124.339 356.756C130.379 358.681 135.372 357.928 138.494 356.952Z" fill="#F9B384"/>
<path d="M155.655 374.285C155.262 369.675 149.898 363.354 138.133 361.853L138.494 356.952C135.37 357.928 130.379 358.681 124.339 356.756L123.115 374.285H155.655Z" fill="#1F3C88"/>
<path d="M126.93 114.183L109.719 114.303V88.2718H126.409L126.419 89.8638L126.5 98.1137L126.62 111.36L126.93 114.183Z" fill="#F9B384"/>
<path d="M126.499 99.3652C123.406 102.619 115.336 98.9447 111.932 95.3604L126.419 91.1152L126.499 99.3652Z" fill="#E28B6D"/>
<path d="M130.494 82.2646C130.484 84.1869 130.364 86.1994 130.044 88.1217C129.203 93.368 126.98 97.9035 121.854 98.0437C109.739 98.3941 106.285 91.4657 104.002 85.7989C101.72 80.122 105.424 66.4755 105.424 66.4755L121.103 64.9236L129.714 71.9822C129.714 71.9822 130.545 76.778 130.494 82.2646Z" fill="#F9B384"/>
<path d="M104.491 82.5524C104.491 82.5524 107.947 82.3922 108.538 73.4714C114.718 75.5389 119.233 73.6542 122.813 69.5392C125.866 73.5716 134.412 74.8356 137.3 66.5781C139.385 60.6134 133.628 51.7277 125.243 57.1092C117.026 52.9566 104.561 53.242 100.974 63.4268C100.974 63.4268 88.5037 69.1763 101.707 81.8341C101.972 82.0869 104.491 82.5549 104.491 82.5549V82.5524Z" fill="#102048"/>
<path d="M152.153 207.741L142.639 351.59H120.279L125.869 212.004L129.29 210.419L152.153 207.741Z" fill="#102048"/>
<path d="M93.9151 188.06L78.2286 351.59H102.591L125.786 215.758L152.151 207.749L153.319 178.714L94.5809 177.38L93.9151 188.06Z" fill="#1F3C88"/>
<path opacity="0.6" d="M97.4119 188.415C110.718 193.191 141.941 187.732 148.424 181.079L143.818 171.865L92.4659 178.689L97.4144 188.413L97.4119 188.415Z" fill="#102048"/>
<path d="M147.225 178.861C146.794 179.042 146.354 179.232 145.903 179.402C140.927 181.424 135.26 183.197 129.223 184.368C125.619 185.079 121.864 185.559 118.039 185.74C112.273 186.03 106.345 185.65 100.478 184.318L107.937 114.774L108.848 106.294C108.848 106.294 118.61 118.308 129.373 105.042L147.225 178.861Z" fill="white"/>
<path opacity="0.3" d="M118.039 185.74C112.273 186.03 106.345 185.65 100.478 184.318L107.937 114.774L110.601 110.924C117.178 126.924 123.917 162.351 118.039 185.74Z" fill="#1F3C88"/>
<path d="M109.724 103.54C117.141 135.028 120.192 167.43 109.266 203.411C101.164 206.492 92.3407 206.457 82.9018 203.744L85.2371 138.332L30.2531 176.128L26.9166 155.521C48.0521 135.311 84.5963 104.779 109.724 103.54Z" fill="#708CD5"/>
<path opacity="0.3" d="M145.903 179.402C140.927 181.424 135.26 183.197 129.223 184.368C125.909 165.365 125.178 134.147 127.871 120.06L145.903 179.402Z" fill="#1F3C88"/>
<path opacity="0.6" d="M192.74 119.44C192.71 119.56 192.69 119.67 192.66 119.78C190.948 126.798 190.637 130.233 184.79 129.311L178.773 122.463L178.713 122.393L179.494 118.288L179.654 117.818L180.555 115.194L180.665 114.854L192.74 119.44Z" fill="#E28B6D"/>
<path d="M191.699 125.817C191.699 125.817 176.931 157.105 168.17 157.856C159.677 158.584 155.655 150.347 155.655 150.347L161.662 196.072C154.604 199.376 146.904 200.988 137.964 199.406C130.024 173.625 127.023 140.29 126.432 103.165C132.86 103.565 145.59 104.114 150.148 107.045C158.326 112.301 168.42 131.074 168.42 131.074L180.185 115.054L191.699 125.817Z" fill="#708CD5"/>
<path d="M11.6658 81.7315C11.6658 81.7315 12.5594 66.7634 14.0837 67.4693C15.608 68.1751 18.6617 81.1908 18.6617 81.1908L15.3953 86.4622L11.6658 81.7315Z" fill="#6F3428"/>
<path d="M56.6101 352.008L57.0531 356.934C57.8341 365.63 51.4188 373.314 42.7208 374.095L41.4543 374.208C32.7587 374.989 25.0744 368.573 24.2935 359.875L23.8505 354.949L56.6076 352.006L56.6101 352.008Z" fill="#EE6F57"/>
<path d="M35.1666 113.492L2.40857 116.433L23.8227 354.964L56.5807 352.023L35.1666 113.492Z" fill="#FBC343"/>
<path opacity="0.3" d="M24.1755 109.655L12.5407 110.7L31.311 319.78L42.9458 318.736L24.1755 109.655Z" stroke="#6F3428" stroke-width="2.68" stroke-miterlimit="10"/>
<path d="M56.605 352.011L23.8554 354.954L22.9943 345.343L22.3936 338.665L20.5414 318.14L53.301 315.196L55.1432 335.721L55.7439 342.399L56.605 352.011Z" fill="#102048"/>
<path d="M55.1735 335.707L22.4235 338.653L23.0243 345.332L55.7743 342.386L55.1735 335.707Z" fill="#FBC343"/>
<path d="M2.41705 116.423L11.5156 79.9569C11.5156 79.9569 14.6568 81.3511 18.4664 78.9982L35.1767 113.482L2.41705 116.426V116.423Z" fill="#EE6F57"/>
<path d="M106.303 81.0431C106.155 80.505 103.712 79.7666 103.174 79.6164C102.34 79.3861 101.432 79.2735 100.621 79.6414C97.6646 80.9781 98.0601 85.2107 99.5919 87.4358C100.46 88.6974 101.73 89.6661 103.206 90.0891C103.742 90.2417 108.828 90.3043 108.605 89.4858C108.605 89.4833 106.308 81.0631 106.303 81.0431Z" fill="#F9B384"/>
<path d="M13.2326 166.116C12.4642 163.703 9.93616 162.351 7.54327 163.177C3.81626 164.464 0.569831 166.647 0.0692256 170.361C-0.388828 173.743 1.30322 184.546 8.85736 185.932L8.24161 180.383C8.24161 180.383 12.8672 179.304 13.7908 177.299C14.4391 175.895 14.4817 170.036 13.2326 166.118V166.116Z" fill="#F9B384"/>
<path d="M153.347 128.966C153.745 131.329 154.083 133.702 154.406 136.072C154.741 138.443 155.009 140.823 155.312 143.198L156.088 150.339C156.313 152.722 156.536 155.108 156.681 157.501L156.293 157.546C155.883 155.183 155.55 152.812 155.22 150.44L154.326 143.313C154.073 140.933 153.785 138.555 153.565 136.172C153.332 133.789 153.114 131.404 152.957 129.011L153.345 128.966H153.347Z" fill="#1F3C88"/>
<path d="M86.0158 128.581C86.0108 131.236 85.9457 133.887 85.8681 136.538C85.8005 139.188 85.6654 141.839 85.5652 144.487L85.1322 152.432C84.9545 155.078 84.7718 157.726 84.5165 160.366L84.126 160.349C84.1185 157.693 84.1861 155.043 84.2612 152.389L84.579 144.44C84.7317 141.792 84.8444 139.143 85.0271 136.495C85.1998 133.849 85.385 131.201 85.6303 128.558L86.0208 128.576L86.0158 128.581Z" fill="#1F3C88"/>
<path d="M118.455 80.7953C118.668 81.7389 118.277 82.63 117.586 82.7852C116.895 82.9404 116.162 82.2996 115.952 81.356C115.739 80.4123 116.13 79.5213 116.82 79.3661C117.511 79.2109 118.245 79.8517 118.455 80.7953Z" fill="#102048"/>
<path d="M128.434 79.6289C128.394 80.5951 127.786 81.356 127.078 81.326C126.369 81.2959 125.829 80.4874 125.871 79.5213C125.911 78.5551 126.52 77.7942 127.228 77.8242C127.936 77.8543 128.477 78.6627 128.434 79.6289Z" fill="#102048"/>
<path d="M122.87 80.4199C123.213 81.2484 123.158 82.1395 123.381 82.8178C123.494 83.1607 123.649 83.4636 123.866 83.6488C124.067 83.8315 124.392 83.9516 124.805 84.1118C125.231 84.277 125.684 84.5699 125.992 85.0054C126.319 85.4284 126.41 86.1643 126.112 86.6449C125.846 87.1255 125.463 87.3908 125.133 87.6336C124.79 87.8639 124.46 88.1117 124.102 88.3269L123.844 88.0316C124.107 87.7062 124.395 87.4133 124.672 87.1055C124.958 86.8126 125.218 86.5273 125.318 86.2619C125.531 85.7989 125.075 85.2933 124.42 85.0304C124.082 84.8753 123.594 84.7401 123.198 84.3371C122.818 83.9492 122.63 83.4661 122.555 83.013C122.39 82.0844 122.577 81.2909 122.49 80.52L122.868 80.4174L122.87 80.4199Z" fill="#E28B6D"/>
<path d="M113.677 78.2598C113.824 77.6665 114.187 77.1034 114.698 76.6979C115.201 76.2799 115.859 76.0521 116.513 76.0195C117.827 75.9395 119.128 76.6879 119.669 77.7942L119.363 78.037C118.495 77.3537 117.536 76.9807 116.563 77.0158C115.584 77.0408 114.695 77.5439 114.032 78.4275L113.677 78.2623V78.2598Z" fill="#102048"/>
<path d="M124.011 77.0332C124.159 76.5702 124.419 76.1297 124.797 75.7692C125.168 75.3988 125.683 75.1535 126.219 75.0659C127.295 74.8882 128.449 75.4363 128.875 76.39L128.562 76.6252C127.859 76.1522 127.09 75.9519 126.367 76.0521C126.004 76.0996 125.661 76.2373 125.32 76.435C124.988 76.6428 124.682 76.9281 124.349 77.2335L124.011 77.0357V77.0332Z" fill="#102048"/>
<path d="M118.472 90.1166C120.22 92.8524 122.55 93.1503 124.35 90.2693L118.472 90.1166Z" fill="white"/>
<path opacity="0.4" d="M130.542 81.5963C130.532 83.5186 130.364 86.1994 130.044 88.1217C128.832 87.7312 127.951 86.5998 127.951 85.2482C127.951 83.7364 129.11 81.8266 130.542 81.5963Z" fill="#FC8879"/>
<path opacity="0.4" d="M114.205 90.2667C115.988 90.2667 117.433 88.8211 117.433 87.0379C117.433 85.2546 115.988 83.8089 114.205 83.8089C112.421 83.8089 110.976 85.2546 110.976 87.0379C110.976 88.8211 112.421 90.2667 114.205 90.2667Z" fill="#FC8879"/>
<path d="M104.188 84.2595C103.549 83.8265 102.964 83.3509 102.383 83.0705C102.095 82.9279 101.825 82.8428 101.587 82.8628C101.344 82.8803 101.066 83.023 100.753 83.2458L100.426 83.033C100.561 82.6325 100.849 82.1845 101.377 82.0093C101.9 81.8265 102.433 81.9742 102.826 82.177C103.624 82.6125 104.17 83.2533 104.501 84.0217L104.19 84.2595H104.188Z" fill="#E28B6D"/>
<path opacity="0.6" d="M13.7907 177.297L9.14261 191.417L8.18396 180.383C11.0725 179.755 12.6493 178.599 13.7907 177.297Z" fill="#6F3428"/>
</svg>
