<svg width="22" height="22" viewBox="0 0 22 22" fill="none" xmlns="http://www.w3.org/2000/svg">
<g clip-path="url(#clip0_18_362)">
<path d="M11 22C17.0751 22 22 17.0751 22 11C22 4.92487 17.0751 0 11 0C4.92487 0 0 4.92487 0 11C0 17.0751 4.92487 22 11 22Z" fill="#3B5998"/>
<path d="M13.7654 11.4306H11.8026V18.6214H8.82879V11.4306H7.41443V8.90345H8.82879V7.2681C8.82879 6.09864 9.3843 4.2674 11.8291 4.2674L14.0319 4.27662V6.72965H12.4336C12.1715 6.72965 11.8028 6.86063 11.8028 7.4185V8.9058H14.0252L13.7654 11.4306Z" fill="white"/>
</g>
<defs>
<clipPath id="clip0_18_362">
<rect width="22" height="22" fill="white"/>
</clipPath>
</defs>
</svg>
