<svg width="22" height="22" viewBox="0 0 22 22" fill="none" xmlns="http://www.w3.org/2000/svg">
<g clip-path="url(#clip0_18_341)">
<path d="M4.87566 13.2949L4.10988 16.1537L1.31093 16.2129C0.474461 14.6614 0 12.8863 0 11C0 9.17594 0.443609 7.45581 1.22994 5.94121H1.23054L3.72238 6.39805L4.81396 8.87494C4.5855 9.541 4.46097 10.256 4.46097 11C4.46106 11.8075 4.60732 12.5811 4.87566 13.2949Z" fill="#FBBB00"/>
<path d="M21.8078 8.94507C21.9341 9.61048 22 10.2977 22 11C22 11.7875 21.9172 12.5557 21.7595 13.2967C21.224 15.8183 19.8248 18.0201 17.8865 19.5782L17.8859 19.5776L14.7473 19.4175L14.3031 16.6445C15.5892 15.8902 16.5944 14.7098 17.1238 13.2967H11.2418V8.94507H17.2096H21.8078Z" fill="#518EF8"/>
<path d="M17.8859 19.5776L17.8865 19.5782C16.0014 21.0934 13.6067 22 11 22C6.81091 22 3.16884 19.6586 1.31091 16.2129L4.87564 13.2949C5.80459 15.7741 8.19618 17.539 11 17.539C12.2051 17.539 13.3342 17.2132 14.303 16.6445L17.8859 19.5776Z" fill="#28B446"/>
<path d="M18.0213 2.53241L14.4578 5.44981C13.4551 4.82307 12.2699 4.46102 11 4.46102C8.13278 4.46102 5.69645 6.30682 4.81405 8.87494L1.23058 5.9412H1.22998C3.06071 2.41154 6.74872 0 11 0C13.6691 0 16.1163 0.950727 18.0213 2.53241Z" fill="#F14336"/>
</g>
<defs>
<clipPath id="clip0_18_341">
<rect width="22" height="22" fill="white"/>
</clipPath>
</defs>
</svg>
